<?xml version="1.0" encoding="UTF-8"?>
<svg width="24" height="24" viewBox="0 0 24 24" fill="none" xmlns="http://www.w3.org/2000/svg">
  <path d="M21.0455 2L13.3438 8.25L14.8455 4.61625L21.0455 2Z" fill="#E17726"/>
  <path d="M2.95312 2L10.5765 8.31L9.15487 4.61625L2.95312 2Z" fill="#E27625"/>
  <path d="M18.2375 16.7467L16.1437 20.2505L20.6625 21.5905L21.9375 16.8229L18.2375 16.7467Z" fill="#E27625"/>
  <path d="M2.07324 16.8229L3.33699 21.5905L7.85574 20.2505L5.76199 16.7467L2.07324 16.8229Z" fill="#E27625"/>
  <path d="M7.60425 10.7141L6.32925 12.7503L10.7917 12.9789L10.6392 8.12891L7.60425 10.7141Z" fill="#E27625"/>
  <path d="M16.3927 10.7142L13.3015 8.06641L13.1927 12.979L17.6552 12.7504L16.3927 10.7142Z" fill="#E27625"/>
  <path d="M7.85574 20.2504L10.5232 18.8354L8.21074 16.8604L7.85574 20.2504Z" fill="#E27625"/>
  <path d="M13.4737 18.8354L16.1412 20.2504L15.7862 16.8604L13.4737 18.8354Z" fill="#E27625"/>
  <path d="M16.1412 20.2506L13.4737 18.8356L13.7025 20.7369L13.6787 21.5294L16.1412 20.2506Z" fill="#D5BFB2"/>
  <path d="M7.85574 20.2506L10.3182 21.5294L10.3032 20.7369L10.5232 18.8356L7.85574 20.2506Z" fill="#D5BFB2"/>
  <path d="M10.3775 15.6137L8.15625 14.8962L9.73125 14.1037L10.3775 15.6137Z" fill="#233447"/>
  <path d="M13.6187 15.6137L14.265 14.1037L15.8487 14.8962L13.6187 15.6137Z" fill="#233447"/>
  <path d="M7.85574 20.2505L8.22574 16.7467L5.76074 16.8229L7.85574 20.2505Z" fill="#CC6228"/>
  <path d="M15.7742 16.7467L16.1442 20.2505L18.2392 16.8229L15.7742 16.7467Z" fill="#CC6228"/>
  <path d="M17.6557 12.7503L13.1932 12.979L13.6207 15.6127L14.2669 14.1027L15.8507 14.8952L17.6557 12.7503Z" fill="#CC6228"/>
  <path d="M8.15699 14.8952L9.73199 14.1027L10.3782 15.6127L10.8057 12.979L6.34324 12.7503L8.15699 14.8952Z" fill="#CC6228"/>
  <path d="M6.34375 12.7503L8.21125 16.8603L8.1575 14.8953L6.34375 12.7503Z" fill="#E27525"/>
  <path d="M15.8493 14.8953L15.7868 16.8603L17.6543 12.7503L15.8493 14.8953Z" fill="#E27525"/>
  <path d="M10.8068 12.979L10.3793 15.6127L10.9193 18.1977L11.0443 14.4077L10.8068 12.979Z" fill="#E27525"/>
  <path d="M13.1932 12.979L12.9645 14.3989L13.0732 18.1977L13.6207 15.6127L13.1932 12.979Z" fill="#E27525"/>
  <path d="M13.6217 15.6127L13.0742 18.1977L13.4742 18.8352L15.7867 16.8602L15.8492 14.8952L13.6217 15.6127Z" fill="#F5841F"/>
  <path d="M8.15625 14.8952L8.21 16.8602L10.5225 18.8352L10.9225 18.1977L10.375 15.6127L8.15625 14.8952Z" fill="#F5841F"/>
  <path d="M13.6787 21.5292L13.7025 20.7367L13.4925 20.5605H10.5075L10.3032 20.7367L10.3182 21.5292L7.85574 20.2505L8.77074 21.0042L10.4775 22.1667H13.5112L15.2262 21.0042L16.1412 20.2505L13.6787 21.5292Z" fill="#C0AC9D"/>
  <path d="M13.4737 18.8354L13.0737 18.1979H10.9237L10.5237 18.8354L10.3037 20.7367L10.5081 20.5604H13.4931L13.7031 20.7367L13.4737 18.8354Z" fill="#161616"/>
  <path d="M21.4125 8.48438L22.0625 5.18438L21.0462 2L13.4737 7.96875L16.3925 10.7137L20.5387 11.9537L21.4462 10.8537L21.0462 10.5687L21.6737 9.99875L21.1875 9.61875L21.815 9.14375L21.4125 8.48438Z" fill="#763E1A"/>
  <path d="M1.9375 5.18438L2.5875 8.48438L2.17375 9.14375L2.8125 9.61875L2.32625 9.99875L2.95375 10.5687L2.55375 10.8537L3.46125 11.9537L7.6075 10.7137L10.5262 7.96875L2.95375 2L1.9375 5.18438Z" fill="#763E1A"/>
  <path d="M20.5387 11.9536L16.3925 10.7136L17.655 12.7499L15.7875 16.8599L18.2387 16.8224H21.9375L20.5387 11.9536Z" fill="#F5841F"/>
  <path d="M7.6075 10.7136L3.46125 11.9536L2.07125 16.8224H5.76125L8.2125 16.8599L6.345 12.7499L7.6075 10.7136Z" fill="#F5841F"/>
  <path d="M13.1925 12.979L13.4737 7.96895L14.8462 4.61621H9.15375L10.5262 7.96895L10.8075 12.979L10.9175 14.4165L10.9262 18.1977H13.0762L13.0849 14.4165L13.1925 12.979Z" fill="#F5841F"/>
</svg> 